<svg width="18" height="18" viewBox="0 0 18 18" fill="none" xmlns="http://www.w3.org/2000/svg">
<g clip-path="url(#clip0_5_2631)">
<path d="M12.8774 18C12.7787 18.0006 12.6809 17.9816 12.5895 17.9443C12.4981 17.907 12.415 17.852 12.3449 17.7825L6.21743 11.655C5.8682 11.3067 5.59113 10.8928 5.40208 10.4373C5.21303 9.98167 5.11572 9.49326 5.11572 9.00001C5.11572 8.50675 5.21303 8.01834 5.40208 7.56276C5.59113 7.10717 5.8682 6.69335 6.21743 6.34501L12.3449 0.217517C12.4149 0.147588 12.4979 0.0921173 12.5892 0.0542721C12.6806 0.0164269 12.7785 -0.00305176 12.8774 -0.00305176C12.9763 -0.00305176 13.0742 0.0164269 13.1656 0.0542721C13.257 0.0921173 13.34 0.147588 13.4099 0.217517C13.4799 0.287446 13.5353 0.370463 13.5732 0.461829C13.611 0.553196 13.6305 0.651122 13.6305 0.750016C13.6305 0.84891 13.611 0.946836 13.5732 1.0382C13.5353 1.12957 13.4799 1.21259 13.4099 1.28252L7.28243 7.41001C6.86107 7.83188 6.62441 8.40375 6.62441 9.00001C6.62441 9.59626 6.86107 10.1681 7.28243 10.59L13.4099 16.7175C13.4802 16.7872 13.536 16.8702 13.5741 16.9616C13.6122 17.053 13.6318 17.151 13.6318 17.25C13.6318 17.349 13.6122 17.447 13.5741 17.5384C13.536 17.6298 13.4802 17.7128 13.4099 17.7825C13.3398 17.852 13.2567 17.907 13.1654 17.9443C13.074 17.9816 12.9761 18.0006 12.8774 18Z" fill="currentColor"/>
</g>
<defs>
<clipPath id="clip0_5_2631">
<rect width="18" height="18" fill="white"/>
</clipPath>
</defs>
</svg>
