<svg width="19" height="18" viewBox="0 0 19 18" fill="none" xmlns="http://www.w3.org/2000/svg">
<path d="M12.1916 7.40998L8.55782 3.96748C8.40949 3.8278 8.20884 3.74939 7.9997 3.74939C7.79055 3.74939 7.5899 3.8278 7.44157 3.96748C7.36737 4.03721 7.30847 4.12016 7.26828 4.21155C7.22809 4.30295 7.2074 4.40098 7.2074 4.49998C7.2074 4.59899 7.22809 4.69702 7.26828 4.78842C7.30847 4.87981 7.36737 4.96276 7.44157 5.03248L11.0832 8.46748C11.1574 8.53721 11.2163 8.62016 11.2565 8.71155C11.2967 8.80295 11.3174 8.90098 11.3174 8.99998C11.3174 9.09899 11.2967 9.19702 11.2565 9.28842C11.2163 9.37981 11.1574 9.46276 11.0832 9.53249L7.44157 12.9675C7.2925 13.1077 7.20833 13.2983 7.20759 13.4973C7.20685 13.6964 7.28959 13.8875 7.43761 14.0287C7.58564 14.17 7.78682 14.2497 7.9969 14.2504C8.20698 14.2511 8.40875 14.1727 8.55782 14.0325L12.1916 10.59C12.6363 10.1681 12.8861 9.59624 12.8861 8.99998C12.8861 8.40373 12.6363 7.83186 12.1916 7.40998Z" fill="#919191"/>
</svg>
