<svg width="18" height="18" viewBox="0 0 18 18" fill="none" xmlns="http://www.w3.org/2000/svg">
<path d="M7.9499 9.53248C7.8796 9.46276 7.8238 9.37981 7.78573 9.28842C7.74765 9.19702 7.72805 9.09899 7.72805 8.99998C7.72805 8.90098 7.74765 8.80295 7.78573 8.71155C7.8238 8.62016 7.8796 8.53721 7.9499 8.46748L11.3924 5.03248C11.4627 4.96276 11.5185 4.87981 11.5566 4.78842C11.5946 4.69702 11.6142 4.59899 11.6142 4.49998C11.6142 4.40098 11.5946 4.30295 11.5566 4.21155C11.5185 4.12016 11.4627 4.03721 11.3924 3.96748C11.2519 3.8278 11.0618 3.74939 10.8636 3.74939C10.6655 3.74939 10.4754 3.8278 10.3349 3.96748L6.89239 7.40998C6.47104 7.83186 6.23438 8.40373 6.23438 8.99998C6.23438 9.59624 6.47104 10.1681 6.89239 10.59L10.3349 14.0325C10.4746 14.171 10.6631 14.2492 10.8599 14.25C10.9586 14.2506 11.0564 14.2316 11.1478 14.1943C11.2392 14.157 11.3223 14.102 11.3924 14.0325C11.4627 13.9628 11.5185 13.8798 11.5566 13.7884C11.5946 13.697 11.6142 13.599 11.6142 13.5C11.6142 13.401 11.5946 13.3029 11.5566 13.2116C11.5185 13.1202 11.4627 13.0372 11.3924 12.9675L7.9499 9.53248Z" fill="currentColor"/>
</svg>
