<svg width="330" height="608" viewBox="0 0 330 608" fill="none" xmlns="http://www.w3.org/2000/svg">
<path d="M312.454 172.39L307.585 164.403C304.92 160.032 300.234 157.296 295.118 157.124L286.163 156.822C280.06 156.617 275.585 162.505 277.417 168.331L277.602 168.921C278.837 172.844 282.799 175.235 286.846 174.497V174.497C292.066 173.545 295.002 167.941 292.812 163.108L287.964 152.406C285.639 147.273 280.963 143.591 275.428 142.535L269.333 141.371" stroke="#FF6565" stroke-width="7" stroke-linecap="round"/>
<path d="M91.9833 550.663L83.6937 554.997C79.1569 557.368 76.1184 561.864 75.6097 566.958L74.7193 575.873C74.1124 581.949 79.6934 586.802 85.6271 585.358L86.2277 585.211C90.2242 584.238 92.8707 580.441 92.4007 576.355V576.355C91.7945 571.084 86.3958 567.785 81.4289 569.652L70.4311 573.785C65.1563 575.767 61.1747 580.19 59.756 585.644L58.1937 591.649" stroke="#FFC700" stroke-width="7" stroke-linecap="round"/>
<path d="M51.5062 159.511L47.8955 158.49C43.518 157.253 38.8365 158.919 36.225 162.644L33.4662 166.579C31.3703 169.568 32.2681 173.71 35.4138 175.563L36.0098 175.914C38.9932 177.672 42.8414 176.364 44.136 173.152V173.152C45.2838 170.305 43.9534 167.061 41.1366 165.84L34.8997 163.136C30.1743 161.087 24.6784 162.111 21.0073 165.723L20.3383 166.382" stroke="#88CA35" stroke-width="6" stroke-linecap="round"/>
<path d="M57 122L71 137" stroke="#69A5FF" stroke-width="7" stroke-linecap="round"/>
<path d="M325.641 215L312 245" stroke="#FFD748" stroke-width="7" stroke-linecap="round"/>
<path d="M8 528L19.3094 545.12" stroke="#88CA35" stroke-width="7" stroke-linecap="round"/>
<path d="M142.928 523L122 551" stroke="#69A5FF" stroke-width="7" stroke-linecap="round"/>
<path d="M300.028 467L279 482.486" stroke="#88CA35" stroke-width="7" stroke-linecap="round"/>
<path d="M282.266 265.154C282.276 263.7 284.139 263.109 284.985 264.291L288.008 268.512C288.386 269.04 289.062 269.265 289.681 269.068L294.63 267.498C296.015 267.058 297.153 268.648 296.291 269.817L293.21 273.997C292.825 274.52 292.82 275.232 293.198 275.76L296.221 279.981C297.067 281.162 295.907 282.736 294.528 282.278L289.602 280.639C288.985 280.434 288.306 280.65 287.921 281.173L284.84 285.352C283.978 286.522 282.123 285.905 282.133 284.452L282.169 279.26C282.173 278.61 281.759 278.031 281.142 277.826L276.215 276.188C274.837 275.73 274.85 273.775 276.235 273.335L281.184 271.765C281.803 271.568 282.225 270.995 282.23 270.345L282.266 265.154Z" fill="#FF6565"/>
<path d="M271.59 562.214C273.064 559.709 276.882 560.554 277.162 563.447L277.765 569.685C277.891 570.979 278.834 572.045 280.103 572.325L286.223 573.679C289.06 574.307 289.437 578.199 286.772 579.359L281.026 581.861C279.834 582.379 279.112 583.606 279.237 584.9L279.84 591.138C280.12 594.031 276.535 595.592 274.608 593.416L270.454 588.724C269.592 587.751 268.202 587.443 267.01 587.962L261.264 590.463C258.599 591.623 256.007 588.696 257.481 586.191L260.659 580.79C261.319 579.67 261.181 578.252 260.32 577.279L256.165 572.587C254.238 570.412 256.222 567.042 259.059 567.669L265.178 569.023C266.447 569.304 267.753 568.736 268.412 567.616L271.59 562.214Z" fill="#FF6565"/>
<circle cx="289.5" cy="389.5" r="10.5" fill="#69A5FF"/>
<circle cx="20" cy="485" r="4" fill="#FF6565"/>
<circle cx="223" cy="549" r="4" fill="#FFD748"/>
<path d="M23.2059 321.59C22.9682 318.693 26.5757 317.185 28.4705 319.388L32.5567 324.14C33.4041 325.126 34.7896 325.454 35.9887 324.952L41.7708 322.534C44.452 321.413 47.0014 324.378 45.4913 326.861L42.2346 332.216C41.5592 333.326 41.6757 334.745 42.5231 335.731L46.6093 340.483C48.5041 342.686 46.4722 346.027 43.644 345.358L37.5451 343.915C36.2803 343.616 34.9667 344.165 34.2914 345.276L31.0347 350.631C29.5245 353.114 25.7193 352.213 25.4816 349.317L24.9689 343.071C24.8626 341.775 23.9343 340.696 22.6695 340.397L16.5706 338.954C13.7425 338.285 13.4226 334.388 16.1038 333.267L21.8859 330.849C23.085 330.348 23.8249 329.131 23.7185 327.836L23.2059 321.59Z" fill="#FFD748"/>
<circle cx="23.5" cy="214.5" r="4.5" fill="#FF6565"/>
<circle cx="217" cy="174" r="6" fill="#69A5FF"/>
<circle cx="314.5" cy="294.5" r="4.5" fill="#88CA35"/>
<line x1="173.855" y1="200.865" x2="242.966" y2="5.00863" stroke="#D9D9D9" stroke-width="30"/>
<g filter="url(#filter0_d_107_1044)">
<rect x="37" y="197" width="250" height="332" rx="15" fill="white"/>
</g>
<line x1="153.556" y1="210.044" x2="97.5555" y2="10.0444" stroke="#D9D9D9" stroke-width="30"/>
<rect x="132" y="206" width="60" height="10" rx="5" fill="#0066FF"/>
<defs>
<filter id="filter0_d_107_1044" x="33" y="197" width="258" height="340" filterUnits="userSpaceOnUse" color-interpolation-filters="sRGB">
<feFlood flood-opacity="0" result="BackgroundImageFix"/>
<feColorMatrix in="SourceAlpha" type="matrix" values="0 0 0 0 0 0 0 0 0 0 0 0 0 0 0 0 0 0 127 0" result="hardAlpha"/>
<feOffset dy="4"/>
<feGaussianBlur stdDeviation="2"/>
<feComposite in2="hardAlpha" operator="out"/>
<feColorMatrix type="matrix" values="0 0 0 0 0 0 0 0 0 0 0 0 0 0 0 0 0 0 0.25 0"/>
<feBlend mode="normal" in2="BackgroundImageFix" result="effect1_dropShadow_107_1044"/>
<feBlend mode="normal" in="SourceGraphic" in2="effect1_dropShadow_107_1044" result="shape"/>
</filter>
</defs>
</svg>
