<svg width="15" height="15" viewBox="0 0 15 15" fill="none" xmlns="http://www.w3.org/2000/svg">
<g clip-path="url(#clip0_65_1271)">
<path d="M15 9.99995V13.1249C15 13.6222 14.8025 14.0991 14.4508 14.4508C14.0992 14.8024 13.6223 14.9999 13.125 14.9999H10C9.12319 14.999 8.26202 14.7676 7.50291 14.3288C6.74379 13.89 6.11341 13.2593 5.675 12.4999C6.14617 12.4966 6.61573 12.4446 7.07625 12.3449C7.42697 12.7835 7.87187 13.1375 8.37799 13.3807C8.88411 13.6239 9.43847 13.7501 10 13.7499H13.125C13.2908 13.7499 13.4497 13.6841 13.5669 13.5669C13.6842 13.4497 13.75 13.2907 13.75 13.1249V9.99995C13.7499 9.43822 13.6233 8.88373 13.3796 8.37759C13.136 7.87146 12.7815 7.42667 12.3425 7.0762C12.443 6.61577 12.4958 6.1462 12.5 5.67495C13.2593 6.11335 13.89 6.74374 14.3288 7.50285C14.7676 8.26197 14.9991 9.12313 15 9.99995ZM11.2356 6.03182C11.2941 5.2266 11.1785 4.41822 10.8968 3.66163C10.615 2.90504 10.1737 2.21796 9.60286 1.64708C9.03198 1.0762 8.34491 0.634904 7.58832 0.353169C6.83172 0.0714343 6.02335 -0.0441327 5.21812 0.0143208C3.7912 0.177278 2.47308 0.856306 1.51199 1.92354C0.550892 2.99076 0.013142 4.37255 0 5.8087L0 8.9587C0 10.5412 0.941875 11.2499 1.875 11.2499H5.4375C6.87425 11.2376 8.25688 10.7002 9.32487 9.73904C10.3929 8.77789 11.0725 7.45933 11.2356 6.03182ZM8.71875 2.53182C9.16246 2.97651 9.50547 3.51132 9.72458 4.10006C9.94369 4.68881 10.0338 5.31774 9.98875 5.94432C9.85535 7.05912 9.31906 8.08671 8.48083 8.83366C7.6426 9.58061 6.56024 9.9954 5.4375 9.99995H1.875C1.295 9.99995 1.25 9.20307 1.25 8.9587V5.8087C1.25521 4.68643 1.67041 3.60476 2.41745 2.76724C3.16449 1.92973 4.19187 1.39411 5.30625 1.2612C5.41 1.2537 5.51375 1.24995 5.6175 1.24995C6.19329 1.24941 6.76355 1.36234 7.29568 1.58229C7.82781 1.80224 8.31137 2.1249 8.71875 2.53182Z" fill="white"/>
</g>
<defs>
<clipPath id="clip0_65_1271">
<rect width="15" height="15" fill="white"/>
</clipPath>
</defs>
</svg>
