<svg width="12" height="13" viewBox="0 0 12 13" fill="none" xmlns="http://www.w3.org/2000/svg">
<g clip-path="url(#clip0_32_1011)">
<path d="M11.1594 2.26702L4.24994 9.3367C4.20348 9.38442 4.14828 9.42229 4.08749 9.44812C4.02669 9.47396 3.96152 9.48726 3.89569 9.48726C3.82986 9.48726 3.76468 9.47396 3.70389 9.44812C3.6431 9.42229 3.58789 9.38442 3.54144 9.3367L0.869439 6.6C0.822984 6.55228 0.767777 6.51441 0.706986 6.48857C0.646194 6.46273 0.581015 6.44943 0.515189 6.44943C0.449362 6.44943 0.384183 6.46273 0.323391 6.48857C0.2626 6.51441 0.207393 6.55228 0.160939 6.6C0.1143 6.64753 0.0772939 6.70402 0.0520431 6.76623C0.0267923 6.82843 0.0137939 6.89513 0.0137939 6.96249C0.0137939 7.02984 0.0267923 7.09654 0.0520431 7.15874C0.0772939 7.22095 0.1143 7.27744 0.160939 7.32498L2.83394 10.0596C3.11591 10.3476 3.49804 10.5094 3.89644 10.5094C4.29484 10.5094 4.67696 10.3476 4.95894 10.0596L11.8679 2.99149C11.9145 2.94396 11.9514 2.8875 11.9767 2.82534C12.0019 2.76319 12.0148 2.69655 12.0148 2.62925C12.0148 2.56196 12.0019 2.49532 11.9767 2.43316C11.9514 2.37101 11.9145 2.31455 11.8679 2.26702C11.8215 2.2193 11.7663 2.18143 11.7055 2.15559C11.6447 2.12976 11.5795 2.11646 11.5137 2.11646C11.4479 2.11646 11.3827 2.12976 11.3219 2.15559C11.2611 2.18143 11.2059 2.2193 11.1594 2.26702Z" fill="white"/>
</g>
<defs>
<clipPath id="clip0_32_1011">
<rect width="12" height="12.2791" fill="white"/>
</clipPath>
</defs>
</svg>
