<svg width="15" height="15" viewBox="0 0 15 15" fill="none" xmlns="http://www.w3.org/2000/svg">
<g clip-path="url(#clip0_34_1269)">
<path d="M7.5 0C6.01664 0 4.56659 0.439867 3.33322 1.26398C2.09985 2.08809 1.13856 3.25943 0.570902 4.62987C0.0032444 6.00032 -0.145281 7.50832 0.144109 8.96318C0.433498 10.418 1.1478 11.7544 2.1967 12.8033C3.24559 13.8522 4.58196 14.5665 6.03682 14.8559C7.49168 15.1453 8.99968 14.9968 10.3701 14.4291C11.7406 13.8614 12.9119 12.9001 13.736 11.6668C14.5601 10.4334 15 8.98336 15 7.5C14.9978 5.51154 14.207 3.60513 12.8009 2.19907C11.3949 0.793018 9.48846 0.00215068 7.5 0V0ZM7.5 13.75C6.26386 13.75 5.05549 13.3834 4.02768 12.6967C2.99988 12.0099 2.1988 11.0338 1.72575 9.89177C1.2527 8.74973 1.12893 7.49307 1.37009 6.28069C1.61125 5.06831 2.2065 3.95466 3.08058 3.08058C3.95466 2.2065 5.0683 1.61125 6.28068 1.37009C7.49307 1.12893 8.74973 1.25271 9.89177 1.72575C11.0338 2.1988 12.0099 2.99988 12.6967 4.02769C13.3834 5.05549 13.75 6.26387 13.75 7.5C13.7482 9.15705 13.0891 10.7457 11.9174 11.9174C10.7457 13.0891 9.15704 13.7482 7.5 13.75Z" fill="#919191"/>
<path d="M7.4999 6.25024H6.8749C6.70914 6.25024 6.55017 6.31609 6.43296 6.4333C6.31575 6.55051 6.2499 6.70948 6.2499 6.87524C6.2499 7.041 6.31575 7.19998 6.43296 7.31719C6.55017 7.4344 6.70914 7.50024 6.8749 7.50024H7.4999V11.2502C7.4999 11.416 7.56575 11.575 7.68296 11.6922C7.80017 11.8094 7.95914 11.8752 8.1249 11.8752C8.29066 11.8752 8.44963 11.8094 8.56684 11.6922C8.68405 11.575 8.7499 11.416 8.7499 11.2502V7.50024C8.7499 7.16872 8.6182 6.85078 8.38378 6.61636C8.14936 6.38194 7.83142 6.25024 7.4999 6.25024Z" fill="#919191"/>
<path d="M7.5 4.99976C8.01777 4.99976 8.4375 4.58002 8.4375 4.06226C8.4375 3.54449 8.01777 3.12476 7.5 3.12476C6.98223 3.12476 6.5625 3.54449 6.5625 4.06226C6.5625 4.58002 6.98223 4.99976 7.5 4.99976Z" fill="#919191"/>
</g>
<defs>
<clipPath id="clip0_34_1269">
<rect width="15" height="15" fill="white"/>
</clipPath>
</defs>
</svg>
