<svg width="15" height="15" viewBox="0 0 10 10" fill="none" xmlns="http://www.w3.org/2000/svg">
<g clip-path="url(#clip0_23_925)">
<path d="M5.00004 2.5C4.67041 2.5 4.34817 2.59775 4.07409 2.78088C3.80001 2.96402 3.58639 3.22432 3.46024 3.52886C3.3341 3.8334 3.30109 4.16852 3.3654 4.49182C3.42971 4.81512 3.58844 5.11209 3.82153 5.34518C4.05462 5.57827 4.35159 5.737 4.67489 5.80131C4.99819 5.86562 5.3333 5.83261 5.63785 5.70647C5.94239 5.58032 6.20269 5.3667 6.38582 5.09262C6.56896 4.81853 6.66671 4.4963 6.66671 4.16667C6.66671 3.72464 6.49111 3.30072 6.17855 2.98816C5.86599 2.67559 5.44207 2.5 5.00004 2.5ZM5.00004 5C4.83522 5 4.67411 4.95113 4.53707 4.85956C4.40003 4.76799 4.29321 4.63784 4.23014 4.48557C4.16707 4.3333 4.15057 4.16574 4.18272 4.00409C4.21487 3.84244 4.29424 3.69395 4.41079 3.57741C4.52733 3.46087 4.67582 3.3815 4.83747 3.34935C4.99912 3.31719 5.16667 3.33369 5.31894 3.39677C5.47122 3.45984 5.60137 3.56665 5.69293 3.70369C5.7845 3.84073 5.83338 4.00185 5.83338 4.16667C5.83338 4.38768 5.74558 4.59964 5.5893 4.75592C5.43302 4.9122 5.22106 5 5.00004 5Z" fill="currentColor"/>
<path d="M4.99997 10.0001C4.64911 10.0019 4.30293 9.91962 3.99041 9.76014C3.6779 9.60065 3.40813 9.36861 3.20372 9.08345C1.6158 6.89303 0.810387 5.24637 0.810387 4.18887C0.810387 3.07772 1.25179 2.01208 2.03749 1.22638C2.82319 0.440684 3.88882 -0.000717163 4.99997 -0.000717163C6.11112 -0.000717163 7.17675 0.440684 7.96245 1.22638C8.74815 2.01208 9.18955 3.07772 9.18955 4.18887C9.18955 5.24637 8.38414 6.89303 6.79622 9.08345C6.59181 9.36861 6.32204 9.60065 6.00953 9.76014C5.69701 9.91962 5.35083 10.0019 4.99997 10.0001ZM4.99997 0.908866C4.13014 0.909859 3.29623 1.25584 2.68117 1.8709C2.06611 2.48596 1.72013 3.31987 1.71914 4.1897C1.71914 5.0272 2.50789 6.57595 3.93955 8.55053C4.06109 8.71794 4.22054 8.85419 4.40485 8.94814C4.58916 9.0421 4.7931 9.09107 4.99997 9.09107C5.20684 9.09107 5.41078 9.0421 5.59509 8.94814C5.7794 8.85419 5.93885 8.71794 6.06039 8.55053C7.49205 6.57595 8.2808 5.0272 8.2808 4.1897C8.27981 3.31987 7.93383 2.48596 7.31877 1.8709C6.70371 1.25584 5.8698 0.909859 4.99997 0.908866Z" fill="currentColor"/>
</g>
<defs>
<clipPath id="clip0_23_925">
<rect width="10" height="10" fill="white"/>
</clipPath>
</defs>
</svg>
