<svg width="10" height="10" viewBox="0 0 10 10" fill="none" xmlns="http://www.w3.org/2000/svg">
<g clip-path="url(#clip0_23_922)">
<path d="M9.58333 4.58321H0.416667C0.186548 4.58321 0 4.76976 0 4.99988C0 5.23 0.186548 5.41654 0.416667 5.41654H9.58333C9.81345 5.41654 10 5.23 10 4.99988C10 4.76976 9.81345 4.58321 9.58333 4.58321Z" fill="white"/>
<path d="M9.58333 1.66679H0.416667C0.186548 1.66679 0 1.85334 0 2.08346C0 2.31358 0.186548 2.50013 0.416667 2.50013H9.58333C9.81345 2.50013 10 2.31358 10 2.08346C10 1.85334 9.81345 1.66679 9.58333 1.66679Z" fill="white"/>
<path d="M9.58333 7.5H0.416667C0.186548 7.5 0 7.68655 0 7.91667C0 8.14679 0.186548 8.33334 0.416667 8.33334H9.58333C9.81345 8.33334 10 8.14679 10 7.91667C10 7.68655 9.81345 7.5 9.58333 7.5Z" fill="white"/>
</g>
<defs>
<clipPath id="clip0_23_922">
<rect width="10" height="10" fill="white"/>
</clipPath>
</defs>
</svg>
