<svg width="180" height="146" viewBox="0 0 180 146" fill="none" xmlns="http://www.w3.org/2000/svg">
<rect width="180" height="146" rx="15" fill="#FFD748"/>
<path d="M48.6296 146C48.6296 129.431 62.0611 116 78.6296 116H96.4074C112.976 116 126.407 129.431 126.407 146H48.6296Z" fill="#69A5FF"/>
<ellipse cx="90.2963" cy="129.5" rx="12.037" ry="7.5" fill="#FFEEE4"/>
<ellipse cx="87.5185" cy="92" rx="43.5185" ry="38" fill="#FFEEE4"/>
<ellipse cx="17.0926" cy="28.2494" rx="17.0926" ry="28.2494" transform="matrix(0.778283 0.627914 -0.56887 0.822428 124.289 16)" fill="#FFEEE4"/>
<path d="M36.5926 107.5C36.5926 95.0736 46.6662 85 59.0926 85H115.944C128.371 85 138.444 95.0736 138.444 107.5C138.444 119.926 128.371 130 115.944 130H59.0926C46.6662 130 36.5926 119.926 36.5926 107.5Z" fill="#FFEEE4"/>
<ellipse cx="14.7733" cy="28.2494" rx="14.7733" ry="28.2494" transform="matrix(0.778283 0.627914 -0.56887 0.822428 102.066 6)" fill="#FFEEE4"/>
<path d="M118.074 27.5V27.5C110.227 34.0193 104.457 42.931 101.496 53.1031L100.944 55" stroke="#FFD748" stroke-width="2" stroke-linecap="round"/>
<ellipse cx="87.8867" cy="56.5" rx="19.9074" ry="21.5" fill="#69A5FF"/>
<ellipse cx="87.5185" cy="56" rx="9.25926" ry="10" fill="#FFEEE4"/>
<path d="M57.8889 58.0799L103.626 65.3822" stroke="#69A5FF" stroke-width="8" stroke-linecap="round"/>
<rect width="37.804" height="15.1803" transform="matrix(0.98828 0.152652 -0.13128 0.991345 68.2151 64)" fill="#FFEEE4"/>
<ellipse cx="59.2778" cy="106.5" rx="16.2037" ry="16.5" fill="#FFDADA"/>
<ellipse cx="115.759" cy="106.5" rx="16.2037" ry="16.5" fill="#FFDADA"/>
<ellipse cx="9.25926" cy="13.5" rx="9.25926" ry="13.5" transform="matrix(-1 0 0 1 110.667 81)" fill="white"/>
<ellipse cx="6.48148" cy="10" rx="6.48148" ry="10" transform="matrix(-1 0 0 1 105.111 86)" fill="black"/>
<ellipse cx="9.25926" cy="13.5" rx="9.25926" ry="13.5" transform="matrix(-1 0 0 1 87.5185 81)" fill="white"/>
<ellipse cx="6.48148" cy="10" rx="6.48148" ry="10" transform="matrix(-1 0 0 1 81.9629 86)" fill="black"/>
<path d="M103.04 114.416V114.416C93.5838 117.839 83.3469 118.073 73.8923 115.085L71.7778 114.416" stroke="black" stroke-width="3" stroke-linecap="round"/>
<path d="M115.343 60.6371V60.6371C117.734 52.3748 122.217 45.0219 128.293 39.3975L128.722 39" stroke="white" stroke-width="3.5" stroke-linecap="round"/>
</svg>
