<svg width="258" height="154" viewBox="0 0 258 154" fill="none" xmlns="http://www.w3.org/2000/svg">
<g filter="url(#filter0_d_11_3469)">
<rect x="4" width="250" height="146" rx="15" fill="#FFD748"/>
</g>
<path d="M72.6302 47.7202L69.9316 49.6017C68.6005 50.5298 67.8016 52.099 67.789 53.8101L67.7652 57.0451C67.7493 59.2097 69.8048 60.7865 71.7183 60.0776L71.8948 60.0122C73.1188 59.5587 73.8221 58.2249 73.5576 56.8585V56.8585C73.1967 54.9942 71.2531 53.9566 69.6717 54.7839L66.1571 56.6225C64.5862 57.4443 63.4976 59.0115 63.2171 60.8549L62.8572 63.2197" stroke="#FF6565" stroke-width="2.5" stroke-linecap="round"/>
<path d="M205.68 86.5339L204.529 83.5458C203.873 81.8426 202.46 80.6041 200.782 80.2611L197.93 79.6785C195.972 79.2786 194.257 81.0573 194.557 83.1765L194.588 83.3988C194.794 84.8547 195.982 85.9273 197.346 85.8874V85.8874C199.068 85.837 200.272 84.072 199.809 82.2778L198.784 78.3096C198.279 76.3543 196.915 74.7776 195.138 74.0945L193.298 73.3875" stroke="#FFC700" stroke-width="2.5" stroke-linecap="round"/>
<line x1="1.75" y1="-1.75" x2="10.5733" y2="-1.75" transform="matrix(0.450817 0.892617 -0.861612 0.507568 95.6667 13)" stroke="#69A5FF" stroke-width="3.5" stroke-linecap="round"/>
<line x1="1.75" y1="-1.75" x2="8.26461" y2="-1.75" transform="matrix(-0.55003 0.835145 -0.793021 -0.609195 182.656 9)" stroke="#FF6565" stroke-width="3.5" stroke-linecap="round"/>
<line x1="1.75" y1="-1.75" x2="8.2776" y2="-1.75" transform="matrix(0.534974 0.844869 -0.804392 0.594099 188.259 102)" stroke="#FF6565" stroke-width="3.5" stroke-linecap="round"/>
<line x1="1.75" y1="-1.75" x2="8.181" y2="-1.75" transform="matrix(-0.639736 -0.768594 0.717487 -0.696572 50.168 80.6329)" stroke="#88CA35" stroke-width="3.5" stroke-linecap="round"/>
<path d="M72.8502 15.6895C72.711 14.7 73.8786 14.0675 74.5297 14.7797L75.5354 15.8797C75.8258 16.1974 76.2863 16.2717 76.6716 16.063L78.0339 15.325C78.8759 14.8689 79.7487 15.7767 79.3227 16.6655L78.5787 18.2182C78.3917 18.6083 78.4527 19.0706 78.7313 19.3754L79.8265 20.5733C80.4717 21.279 79.8437 22.4727 78.9145 22.3073L77.526 22.06C77.0968 21.9835 76.6612 22.2195 76.4613 22.6367L75.8144 23.9865C75.3816 24.8898 74.1201 24.7195 73.9822 23.7391L73.7482 22.0746C73.6886 21.6513 73.382 21.322 72.9807 21.2505L71.3834 20.9661C70.4691 20.8032 70.3173 19.505 71.1593 19.0489L72.5217 18.3109C72.9069 18.1022 73.1272 17.6592 73.0651 17.2179L72.8502 15.6895Z" fill="#FFC700"/>
<path d="M57.5926 98.119C58.4603 97.7515 59.2448 98.7823 58.7428 99.6305L57.9014 101.052C57.6767 101.432 57.7014 101.92 57.9628 102.264L58.9353 103.542C59.5241 104.316 58.8337 105.462 57.9317 105.209L56.4787 104.8C56.0729 104.686 55.6414 104.871 55.4137 105.255L54.5951 106.639C54.0914 107.489 52.8803 107.167 52.8251 106.167L52.7317 104.475C52.7073 104.033 52.4239 103.661 52.0268 103.549L50.5081 103.122C49.6107 102.87 49.5524 101.524 50.423 101.156L51.838 100.556C52.2317 100.39 52.4828 99.9682 52.4578 99.5161L52.3684 97.8975C52.3129 96.8926 53.4881 96.3833 54.0769 97.1571L55.0494 98.4351C55.3108 98.7786 55.7498 98.8995 56.1382 98.735L57.5926 98.119Z" fill="#69A5FF"/>
<path d="M204.715 34.2029C205.495 34.7629 205.178 35.99 204.242 36.0322L201.562 36.153C201.142 36.1719 200.788 36.461 200.682 36.8734L199.997 39.5208C199.75 40.474 198.433 40.4857 198.107 39.5376L197.267 37.0957C197.117 36.6604 196.703 36.3719 196.257 36.392L193.768 36.5042C192.818 36.547 192.322 35.3259 193.04 34.7114L195.164 32.8939C195.47 32.632 195.582 32.2002 195.446 31.8048L194.502 29.0615C194.182 28.134 195.192 27.3673 195.984 27.9359L198.059 29.4252C198.431 29.692 198.923 29.6771 199.26 29.3887L201.151 27.7709C201.885 27.1428 203.006 27.89 202.759 28.8432L202.074 31.4906C201.968 31.9029 202.131 32.348 202.481 32.5994L204.715 34.2029Z" fill="#88CA35"/>
<path d="M83.6296 146C83.6296 129.431 97.0611 116 113.63 116H131.407C147.976 116 161.407 129.431 161.407 146H83.6296Z" fill="#69A5FF"/>
<ellipse cx="125.296" cy="129.5" rx="12.037" ry="7.5" fill="#FFEEE4"/>
<ellipse cx="122.519" cy="92" rx="43.5185" ry="38" fill="#FFEEE4"/>
<ellipse cx="17.0926" cy="28.2494" rx="17.0926" ry="28.2494" transform="matrix(0.778283 0.627914 -0.56887 0.822428 159.289 16)" fill="#FFEEE4"/>
<path d="M71.5926 107.5C71.5926 95.0736 81.6662 85 94.0926 85H150.944C163.371 85 173.444 95.0736 173.444 107.5C173.444 119.926 163.371 130 150.944 130H94.0926C81.6662 130 71.5926 119.926 71.5926 107.5Z" fill="#FFEEE4"/>
<ellipse cx="14.7733" cy="28.2494" rx="14.7733" ry="28.2494" transform="matrix(0.778283 0.627914 -0.56887 0.822428 137.066 6)" fill="#FFEEE4"/>
<path d="M153.074 27.5V27.5C145.227 34.0193 139.457 42.931 136.496 53.1031L135.944 55" stroke="#FFD748" stroke-width="2" stroke-linecap="round"/>
<ellipse cx="122.887" cy="56.5" rx="19.9074" ry="21.5" fill="#69A5FF"/>
<ellipse cx="122.519" cy="56" rx="9.25926" ry="10" fill="#FFEEE4"/>
<path d="M92.8889 58.0799L138.626 65.3822" stroke="#69A5FF" stroke-width="8" stroke-linecap="round"/>
<rect width="37.804" height="15.1803" transform="matrix(0.98828 0.152652 -0.13128 0.991345 103.215 64)" fill="#FFEEE4"/>
<ellipse cx="94.2778" cy="106.5" rx="16.2037" ry="16.5" fill="#FFDADA"/>
<ellipse cx="150.759" cy="106.5" rx="16.2037" ry="16.5" fill="#FFDADA"/>
<ellipse cx="9.25926" cy="13.5" rx="9.25926" ry="13.5" transform="matrix(-1 0 0 1 145.667 81)" fill="white"/>
<ellipse cx="6.48148" cy="10" rx="6.48148" ry="10" transform="matrix(-1 0 0 1 140.111 86)" fill="black"/>
<ellipse cx="9.25926" cy="13.5" rx="9.25926" ry="13.5" transform="matrix(-1 0 0 1 122.519 81)" fill="white"/>
<ellipse cx="6.48148" cy="10" rx="6.48148" ry="10" transform="matrix(-1 0 0 1 116.963 86)" fill="black"/>
<path d="M138.04 114.416V114.416C128.584 117.839 118.347 118.073 108.892 115.085L106.778 114.416" stroke="black" stroke-width="3" stroke-linecap="round"/>
<path d="M150.343 60.6372V60.6372C152.734 52.3749 157.217 45.0219 163.293 39.3975L163.722 39" stroke="white" stroke-width="3.5" stroke-linecap="round"/>
<ellipse cx="65.5741" cy="36.5" rx="2.31481" ry="2.5" fill="#88CA35"/>
<ellipse cx="186.87" cy="50.5" rx="1.38889" ry="1.5" fill="#FFC700"/>
<ellipse cx="212.796" cy="116.5" rx="1.38889" ry="1.5" fill="#88CA35"/>
<ellipse cx="42.4259" cy="111.5" rx="1.38889" ry="1.5" fill="#FF6565"/>
<ellipse cx="212.333" cy="61" rx="2.77778" ry="3" fill="#69A5FF"/>
<defs>
<filter id="filter0_d_11_3469" x="0" y="0" width="258" height="154" filterUnits="userSpaceOnUse" color-interpolation-filters="sRGB">
<feFlood flood-opacity="0" result="BackgroundImageFix"/>
<feColorMatrix in="SourceAlpha" type="matrix" values="0 0 0 0 0 0 0 0 0 0 0 0 0 0 0 0 0 0 127 0" result="hardAlpha"/>
<feOffset dy="4"/>
<feGaussianBlur stdDeviation="2"/>
<feComposite in2="hardAlpha" operator="out"/>
<feColorMatrix type="matrix" values="0 0 0 0 0 0 0 0 0 0 0 0 0 0 0 0 0 0 0.25 0"/>
<feBlend mode="normal" in2="BackgroundImageFix" result="effect1_dropShadow_11_3469"/>
<feBlend mode="normal" in="SourceGraphic" in2="effect1_dropShadow_11_3469" result="shape"/>
</filter>
</defs>
</svg>
