<svg width="15" height="16" viewBox="0 0 15 16" fill="none" xmlns="http://www.w3.org/2000/svg">
<g clip-path="url(#clip0_66_1331)">
<path d="M14.2831 0.725998C13.8582 0.296755 13.2823 0.0556641 12.6819 0.0556641C12.0814 0.0556641 11.5055 0.296755 11.0806 0.725998L0.915634 11.0106C0.624542 11.3034 0.393736 11.6518 0.236571 12.0355C0.0794057 12.4192 -0.000998735 12.8306 9.36327e-06 13.246V14.5442C9.36327e-06 14.7119 0.0658574 14.8727 0.183068 14.9913C0.300278 15.1099 0.459249 15.1765 0.625009 15.1765H1.90813C2.31861 15.1777 2.72524 15.0965 3.10448 14.9376C3.48372 14.7787 3.82804 14.5452 4.11751 14.2508L14.2831 3.96554C14.7072 3.53567 14.9454 2.95312 14.9454 2.34577C14.9454 1.73842 14.7072 1.15587 14.2831 0.725998ZM3.23376 13.3566C2.88126 13.7109 2.40499 13.9104 1.90813 13.9118H1.25001V13.246C1.24938 12.9967 1.29761 12.7499 1.39191 12.5197C1.48621 12.2894 1.62471 12.0804 1.79938 11.9047L9.51376 4.0996L10.9513 5.55401L3.23376 13.3566ZM13.3988 3.07139L11.8325 4.6567L10.395 3.20545L11.9619 1.62015C12.0563 1.52485 12.1683 1.44931 12.2915 1.39782C12.4148 1.34632 12.5468 1.3199 12.6802 1.32004C12.8135 1.32019 12.9455 1.34691 13.0687 1.39867C13.1918 1.45043 13.3036 1.52623 13.3978 1.62173C13.492 1.71722 13.5667 1.83056 13.6176 1.95525C13.6685 2.07995 13.6946 2.21356 13.6944 2.34847C13.6943 2.48338 13.6679 2.61693 13.6167 2.74152C13.5656 2.8661 13.4906 2.97927 13.3963 3.07456L13.3988 3.07139Z" fill="#919191"/>
</g>
<defs>
<clipPath id="clip0_66_1331">
<rect width="15" height="15.1765" fill="white"/>
</clipPath>
</defs>
</svg>
