<svg width="250" height="140" viewBox="0 0 250 140" fill="none" xmlns="http://www.w3.org/2000/svg">
<g style="mix-blend-mode:luminosity">
<rect width="250" height="140" rx="15" fill="#A3DB5B"/>
<path d="M86.1111 140C86.1111 123.431 99.5426 110 116.111 110H133.889C150.457 110 163.889 123.431 163.889 140H86.1111Z" fill="#69A5FF"/>
<ellipse cx="125" cy="122.5" rx="12.037" ry="7.5" fill="#FFEEE4"/>
<ellipse cx="89.3519" cy="45" rx="17.1296" ry="18" fill="#FFEEE4"/>
<ellipse cx="89.8148" cy="45.5" rx="9.25926" ry="10.5" fill="white"/>
<ellipse cx="158.796" cy="45" rx="17.1296" ry="18" fill="#FFEEE4"/>
<ellipse cx="158.796" cy="45.5" rx="9.72222" ry="10.5" fill="white"/>
<ellipse cx="124.074" cy="50.5" rx="29.6296" ry="32.5" fill="#69A5FF"/>
<ellipse cx="124.537" cy="46.5" rx="11.5741" ry="12.5" fill="#A3DB5B"/>
<path d="M72.2222 45H175.926V109C175.926 117.284 169.21 124 160.926 124H87.2222C78.938 124 72.2222 117.284 72.2222 109V45Z" fill="#FFEEE4"/>
<path d="M64.0006 23.7202L61.302 25.6017C59.9709 26.5298 59.1719 28.099 59.1594 29.8101L59.1356 33.0451C59.1197 35.2097 61.1752 36.7865 63.0886 36.0776L63.2651 36.0122C64.4892 35.5587 65.1925 34.2249 64.9279 32.8585V32.8585C64.567 30.9942 62.6235 29.9566 61.0421 30.7839L57.5275 32.6225C55.9566 33.4443 54.868 35.0115 54.5874 36.8549L54.2276 39.2197" stroke="#FF6565" stroke-width="2.5" stroke-linecap="round"/>
<path d="M210.013 79.5339L208.862 76.5458C208.206 74.8426 206.793 73.6041 205.115 73.2612L202.263 72.6785C200.306 72.2786 198.59 74.0573 198.89 76.1765L198.921 76.3988C199.127 77.8547 200.316 78.9273 201.68 78.8874V78.8874C203.401 78.8371 204.605 77.072 204.142 75.2778L203.117 71.3096C202.612 69.3543 201.248 67.7776 199.471 67.0945L197.632 66.3875" stroke="#FFC700" stroke-width="2.5" stroke-linecap="round"/>
<line x1="1.75" y1="-1.75" x2="10.5733" y2="-1.75" transform="matrix(0.450817 0.892617 -0.861612 0.507568 86.1111 7)" stroke="#69A5FF" stroke-width="3.5" stroke-linecap="round"/>
<line x1="1.75" y1="-1.75" x2="8.26461" y2="-1.75" transform="matrix(-0.55003 0.835145 -0.793021 -0.609195 160.138 10)" stroke="#FF6565" stroke-width="3.5" stroke-linecap="round"/>
<line x1="1.75" y1="-1.75" x2="8.2776" y2="-1.75" transform="matrix(0.534974 0.844869 -0.804392 0.594099 193.519 98)" stroke="#FF6565" stroke-width="3.5" stroke-linecap="round"/>
<line x1="1.75" y1="-1.75" x2="8.04832" y2="-1.75" transform="matrix(-0.764382 0.644763 -0.585997 -0.810313 51.0082 64)" stroke="#93D242" stroke-width="3.5" stroke-linecap="round"/>
<path d="M181.813 10.6895C181.674 9.69997 182.842 9.06751 183.493 9.77972L184.498 10.8797C184.789 11.1974 185.249 11.2717 185.635 11.063L186.997 10.325C187.839 9.86893 188.712 10.7767 188.286 11.6655L187.542 13.2182C187.355 13.6083 187.416 14.0706 187.694 14.3754L188.79 15.5733C189.435 16.279 188.807 17.4727 187.877 17.3073L186.489 17.06C186.06 16.9835 185.624 17.2195 185.424 17.6367L184.777 18.9865C184.345 19.8898 183.083 19.7195 182.945 18.7391L182.711 17.0746C182.652 16.6513 182.345 16.322 181.944 16.2505L180.346 15.9661C179.432 15.8032 179.28 14.505 180.122 14.0489L181.485 13.3109C181.87 13.1022 182.09 12.6592 182.028 12.2179L181.813 10.6895Z" fill="#FFC700"/>
<path d="M57.2963 91.119C58.164 90.7515 58.9484 91.7823 58.4464 92.6305L57.605 94.0522C57.3803 94.4318 57.4051 94.9203 57.6665 95.2638L58.639 96.5419C59.2278 97.3156 58.5374 98.4622 57.6354 98.2086L56.1824 97.8003C55.7765 97.6862 55.3451 97.8706 55.1174 98.2554L54.2988 99.6385C53.7951 100.489 52.584 100.167 52.5288 99.1672L52.4354 97.4755C52.4109 97.0331 52.1275 96.6607 51.7304 96.5491L50.2118 96.1223C49.3143 95.87 49.2561 94.5243 50.1266 94.1556L51.5417 93.5563C51.9354 93.3895 52.1864 92.9682 52.1615 92.5161L52.0721 90.8975C52.0166 89.8926 53.1918 89.3833 53.7806 90.1571L54.7531 91.4351C55.0145 91.7786 55.4534 91.8995 55.8418 91.735L57.2963 91.119Z" fill="#69A5FF"/>
<path d="M201.641 41.2029C202.421 41.7629 202.104 42.99 201.168 43.0322L198.488 43.153C198.068 43.1719 197.714 43.461 197.608 43.8734L196.923 46.5208C196.676 47.474 195.359 47.4857 195.033 46.5376L194.192 44.0957C194.043 43.6604 193.629 43.3719 193.183 43.392L190.694 43.5042C189.744 43.547 189.248 42.3259 189.966 41.7114L192.09 39.8939C192.396 39.632 192.508 39.2002 192.372 38.8048L191.428 36.0615C191.108 35.134 192.118 34.3673 192.91 34.9359L194.985 36.4252C195.357 36.692 195.849 36.6771 196.186 36.3887L198.077 34.7709C198.811 34.1428 199.932 34.89 199.685 35.8432L199 38.4906C198.893 38.9029 199.057 39.348 199.407 39.5994L201.641 41.2029Z" fill="#A3DB5B"/>
<rect x="91.6667" y="43" width="71.2963" height="8" rx="4" fill="#69A5FF"/>
<ellipse cx="95.8333" cy="98.5" rx="16.2037" ry="16.5" fill="#FFDADA"/>
<ellipse cx="152.315" cy="98.5" rx="16.2037" ry="16.5" fill="#FFDADA"/>
<ellipse cx="112.037" cy="83.5" rx="9.25926" ry="13.5" fill="white"/>
<ellipse cx="114.815" cy="85" rx="6.48148" ry="10" fill="black"/>
<ellipse cx="136.111" cy="83.5" rx="9.25926" ry="13.5" fill="white"/>
<ellipse cx="138.889" cy="85" rx="6.48148" ry="10" fill="black"/>
<path d="M110.574 103.7L111.614 104.077C120.546 107.309 130.266 107.176 138.953 103.7V103.7" stroke="black" stroke-width="3" stroke-linecap="round"/>
<ellipse cx="193.056" cy="42.5" rx="2.31481" ry="2.5" fill="#88CA35"/>
<ellipse cx="41.2037" cy="45.5" rx="2.31481" ry="2.5" fill="#FFC700"/>
<ellipse cx="217.13" cy="107.5" rx="1.38889" ry="1.5" fill="#88CA35"/>
<ellipse cx="42.1296" cy="118.5" rx="1.38889" ry="1.5" fill="#FF6565"/>
<ellipse cx="216.667" cy="52" rx="2.77778" ry="3" fill="#69A5FF"/>
</g>
</svg>
