<svg width="20" height="20" viewBox="0 0 20 20" fill="none" xmlns="http://www.w3.org/2000/svg">
<g clip-path="url(#clip0_31_2187)">
<path d="M19.7557 18.151L14.7815 13.2912C16.137 11.6714 16.8035 9.60465 16.643 7.51829C16.4826 5.43194 15.5075 3.48565 13.9195 2.08201C12.3315 0.678358 10.252 -0.0752582 8.11119 -0.0229622C5.9704 0.0293338 3.93207 0.883541 2.41783 2.36297C0.903588 3.8424 0.0292815 5.83387 -0.024245 7.92545C-0.0777715 10.017 0.693577 12.0487 2.13025 13.6002C3.56693 15.1517 5.55901 16.1044 7.69445 16.2612C9.8299 16.4179 11.9453 15.7668 13.6032 14.4424L18.5773 19.3022C18.7345 19.4505 18.945 19.5326 19.1635 19.5307C19.382 19.5289 19.591 19.4433 19.7455 19.2923C19.9 19.1414 19.9877 18.9371 19.9895 18.7237C19.9914 18.5102 19.9075 18.3045 19.7557 18.151ZM8.33315 14.6557C7.01461 14.6557 5.72568 14.2737 4.62935 13.558C3.53302 12.8423 2.67854 11.8251 2.17395 10.6349C1.66937 9.44471 1.53735 8.13509 1.79458 6.87161C2.05182 5.60813 2.68676 4.44755 3.61911 3.53663C4.55146 2.62572 5.73934 2.00537 7.03255 1.75405C8.32576 1.50273 9.6662 1.63172 10.8844 2.1247C12.1025 2.61769 13.1437 3.45253 13.8763 4.52365C14.6088 5.59478 14.9998 6.85408 14.9998 8.14231C14.9978 9.86918 14.2948 11.5248 13.045 12.7458C11.7952 13.9669 10.1007 14.6538 8.33315 14.6557Z" fill="#919191"/>
</g>
<defs>
<clipPath id="clip0_31_2187">
<rect width="20" height="19.5402" fill="white"/>
</clipPath>
</defs>
</svg>
