<svg width="18" height="18" viewBox="0 0 18 18" fill="none" xmlns="http://www.w3.org/2000/svg">
<g clip-path="url(#clip0_35_1273)">
<path d="M9.00006 6.00049C8.40672 6.00049 7.8267 6.17644 7.33335 6.50608C6.84 6.83572 6.45549 7.30426 6.22842 7.85244C6.00136 8.40062 5.94195 9.00382 6.05771 9.58576C6.17346 10.1677 6.45918 10.7023 6.87874 11.1218C7.2983 11.5414 7.83285 11.8271 8.41479 11.9428C8.99674 12.0586 9.59994 11.9992 10.1481 11.7721C10.6963 11.5451 11.1648 11.1605 11.4945 10.6672C11.8241 10.1739 12.0001 9.59383 12.0001 9.00049C12.0001 8.20484 11.684 7.44178 11.1214 6.87917C10.5588 6.31656 9.79571 6.00049 9.00006 6.00049ZM9.00006 10.5005C8.70339 10.5005 8.41338 10.4125 8.16671 10.2477C7.92003 10.0829 7.72777 9.8486 7.61424 9.57451C7.50071 9.30042 7.47101 8.99882 7.52888 8.70785C7.58676 8.41688 7.72962 8.14961 7.9394 7.93983C8.14918 7.73005 8.41646 7.58719 8.70743 7.52931C8.9984 7.47143 9.3 7.50114 9.57409 7.61467C9.84818 7.7282 10.0824 7.92046 10.2473 8.16713C10.4121 8.41381 10.5001 8.70382 10.5001 9.00049C10.5001 9.39831 10.342 9.77984 10.0607 10.0611C9.77942 10.3425 9.39789 10.5005 9.00006 10.5005Z" fill="white"/>
<path d="M15.9705 10.425L15.6375 10.233C15.7875 9.41733 15.7875 8.58117 15.6375 7.7655L15.9705 7.5735C16.2266 7.42576 16.4511 7.22903 16.6311 6.99455C16.8112 6.76006 16.9433 6.4924 17.0199 6.20686C17.0965 5.92132 17.1161 5.62349 17.0776 5.33037C17.0391 5.03725 16.9433 4.75458 16.7955 4.4985C16.6478 4.24242 16.4511 4.01795 16.2166 3.8379C15.9821 3.65785 15.7144 3.52575 15.4289 3.44915C15.1434 3.37254 14.8455 3.35292 14.5524 3.39142C14.2593 3.42991 13.9766 3.52576 13.7205 3.6735L13.3868 3.86625C12.7564 3.32769 12.032 2.91019 11.25 2.63475V2.25C11.25 1.65326 11.013 1.08097 10.591 0.65901C10.1691 0.237053 9.59677 0 9.00003 0C8.4033 0 7.831 0.237053 7.40904 0.65901C6.98708 1.08097 6.75003 1.65326 6.75003 2.25V2.63475C5.96807 2.91118 5.24392 3.3297 4.61403 3.86925L4.27878 3.675C3.76161 3.37663 3.14709 3.29593 2.57042 3.45065C1.99374 3.60536 1.50215 3.98283 1.20378 4.5C0.905414 5.01717 0.824711 5.63169 0.979429 6.20836C1.13415 6.78504 1.51161 7.27663 2.02878 7.575L2.36178 7.767C2.21186 8.58267 2.21186 9.41883 2.36178 10.2345L2.02878 10.4265C1.51161 10.7249 1.13415 11.2165 0.979429 11.7931C0.824711 12.3698 0.905414 12.9843 1.20378 13.5015C1.50215 14.0187 1.99374 14.3961 2.57042 14.5509C3.14709 14.7056 3.76161 14.6249 4.27878 14.3265L4.61253 14.1337C5.24311 14.6724 5.96777 15.0899 6.75003 15.3652V15.75C6.75003 16.3467 6.98708 16.919 7.40904 17.341C7.831 17.7629 8.4033 18 9.00003 18C9.59677 18 10.1691 17.7629 10.591 17.341C11.013 16.919 11.25 16.3467 11.25 15.75V15.3652C12.032 15.0888 12.7561 14.6703 13.386 14.1307L13.7213 14.3243C14.2385 14.6226 14.853 14.7033 15.4296 14.5486C16.0063 14.3939 16.4979 14.0164 16.7963 13.4993C17.0947 12.9821 17.1754 12.3676 17.0206 11.7909C16.8659 11.2142 16.4885 10.7226 15.9713 10.4242L15.9705 10.425ZM14.0595 7.593C14.3135 8.5133 14.3135 9.4852 14.0595 10.4055C14.0152 10.5657 14.0253 10.7361 14.0883 10.8899C14.1513 11.0437 14.2636 11.1722 14.4075 11.2552L15.2205 11.7248C15.3929 11.8242 15.5187 11.9881 15.5702 12.1803C15.6218 12.3725 15.5949 12.5773 15.4954 12.7496C15.396 12.922 15.2321 13.0478 15.0399 13.0993C14.8477 13.1509 14.6429 13.124 14.4705 13.0245L13.656 12.5535C13.512 12.4701 13.3442 12.4369 13.1792 12.4593C13.0142 12.4817 12.8614 12.5584 12.7448 12.6772C12.0772 13.3587 11.2362 13.845 10.3125 14.0835C10.1513 14.125 10.0085 14.2189 9.90648 14.3504C9.8045 14.482 9.7492 14.6438 9.74928 14.8102V15.75C9.74928 15.9489 9.67027 16.1397 9.52961 16.2803C9.38896 16.421 9.19819 16.5 8.99928 16.5C8.80037 16.5 8.6096 16.421 8.46895 16.2803C8.3283 16.1397 8.24928 15.9489 8.24928 15.75V14.811C8.24936 14.6445 8.19406 14.4828 8.09209 14.3512C7.99011 14.2196 7.84726 14.1257 7.68603 14.0842C6.76229 13.8448 5.92153 13.3575 5.25453 12.675C5.13793 12.5561 4.98509 12.4795 4.8201 12.4571C4.65511 12.4347 4.48736 12.4678 4.34328 12.5513L3.53028 13.0215C3.44495 13.0715 3.35057 13.1042 3.25258 13.1176C3.15458 13.131 3.0549 13.1249 2.95927 13.0996C2.86365 13.0743 2.77397 13.0303 2.6954 12.9703C2.61683 12.9102 2.55092 12.8352 2.50146 12.7495C2.452 12.6638 2.41998 12.5692 2.40723 12.4712C2.39448 12.3731 2.40126 12.2734 2.42717 12.178C2.45309 12.0825 2.49763 11.9931 2.55823 11.915C2.61883 11.8368 2.6943 11.7714 2.78028 11.7225L3.59328 11.253C3.73724 11.1699 3.84954 11.0414 3.91253 10.8876C3.97552 10.7338 3.98563 10.5634 3.94128 10.4032C3.6873 9.48295 3.6873 8.51105 3.94128 7.59075C3.98483 7.43091 3.97423 7.26115 3.91114 7.10797C3.84805 6.95479 3.73602 6.8268 3.59253 6.744L2.77953 6.2745C2.60717 6.17504 2.48139 6.01119 2.42984 5.81899C2.37829 5.62679 2.4052 5.42198 2.50466 5.24962C2.60411 5.07727 2.76796 4.95148 2.96017 4.89993C3.15237 4.84838 3.35717 4.87529 3.52953 4.97475L4.34403 5.44575C4.48772 5.52939 4.65512 5.56291 4.81993 5.54105C4.98474 5.51919 5.13761 5.4432 5.25453 5.325C5.9221 4.64351 6.7631 4.15727 7.68678 3.91875C7.84851 3.87717 7.99173 3.78281 8.09376 3.65063C8.19579 3.51844 8.25078 3.35598 8.25003 3.189V2.25C8.25003 2.05109 8.32905 1.86032 8.4697 1.71967C8.61035 1.57902 8.80112 1.5 9.00003 1.5C9.19894 1.5 9.38971 1.57902 9.53036 1.71967C9.67101 1.86032 9.75003 2.05109 9.75003 2.25V3.189C9.74995 3.35547 9.80525 3.51723 9.90723 3.64881C10.0092 3.78039 10.1521 3.8743 10.3133 3.91575C11.2373 4.15511 12.0783 4.64241 12.7455 5.325C12.8621 5.44385 13.015 5.52052 13.18 5.54292C13.345 5.56533 13.5127 5.5322 13.6568 5.44875L14.4698 4.9785C14.5551 4.92848 14.6495 4.89583 14.7475 4.88243C14.8455 4.86903 14.9452 4.87514 15.0408 4.90043C15.1364 4.92571 15.2261 4.96965 15.3047 5.02974C15.3832 5.08982 15.4492 5.16485 15.4986 5.2505C15.5481 5.33616 15.5801 5.43076 15.5928 5.52884C15.6056 5.62693 15.5988 5.72656 15.5729 5.82202C15.547 5.91747 15.5024 6.00686 15.4418 6.08503C15.3812 6.1632 15.3058 6.22861 15.2198 6.2775L14.4068 6.747C14.2636 6.83003 14.1518 6.95811 14.089 7.11127C14.0262 7.26443 14.0159 7.43407 14.0595 7.59375V7.593Z" fill="white"/>
</g>
<defs>
<clipPath id="clip0_35_1273">
<rect width="18" height="18" fill="white"/>
</clipPath>
</defs>
</svg>
