<svg width="119" height="119" viewBox="0 0 119 119" fill="none" xmlns="http://www.w3.org/2000/svg">
<g clip-path="url(#clip0_31_2011)">
<path d="M59.5208 59.4372C65.341 59.4372 71.0304 57.7113 75.8697 54.4778C80.7089 51.2443 84.4807 46.6485 86.7079 41.2714C88.9352 35.8943 89.5179 29.9775 88.3825 24.2692C87.247 18.5609 84.4444 13.3175 80.3289 9.20201C76.2135 5.08656 70.9701 2.2839 65.2618 1.14845C59.5535 0.0130036 53.6367 0.595758 48.2596 2.82302C42.8825 5.05029 38.2866 8.82203 35.0531 13.6613C31.8196 18.5006 30.0938 24.19 30.0938 30.0101C30.1015 37.8123 33.2044 45.2926 38.7213 50.8096C44.2383 56.3266 51.7187 59.4294 59.5208 59.4372ZM59.5208 10.392C63.4009 10.392 67.1939 11.5426 70.42 13.6983C73.6462 15.8539 76.1607 18.9179 77.6456 22.5026C79.1304 26.0873 79.5189 30.0319 78.7619 33.8374C78.005 37.6429 76.1365 41.1385 73.3929 43.8822C70.6493 46.6258 67.1537 48.4942 63.3481 49.2512C59.5426 50.0082 55.5981 49.6197 52.0133 48.1348C48.4286 46.65 45.3647 44.1355 43.209 40.9093C41.0534 37.6831 39.9028 33.8902 39.9028 30.0101C39.9028 24.8071 41.9697 19.8171 45.6488 16.138C49.3279 12.4589 54.3178 10.392 59.5208 10.392Z" fill="#919191"/>
<path d="M59.5208 69.2495C47.818 69.2625 36.5982 73.9172 28.323 82.1923C20.0479 90.4675 15.3932 101.687 15.3802 113.39C15.3802 114.691 15.8969 115.938 16.8167 116.858C17.7365 117.778 18.9839 118.295 20.2847 118.295C21.5855 118.295 22.8329 117.778 23.7527 116.858C24.6725 115.938 25.1892 114.691 25.1892 113.39C25.1892 104.285 28.8063 95.5525 35.2447 89.114C41.6831 82.6756 50.4155 79.0585 59.5208 79.0585C68.6261 79.0585 77.3585 82.6756 83.7969 89.114C90.2353 95.5525 93.8524 104.285 93.8524 113.39C93.8524 114.691 94.3691 115.938 95.2889 116.858C96.2087 117.778 97.4562 118.295 98.7569 118.295C100.058 118.295 101.305 117.778 102.225 116.858C103.145 115.938 103.661 114.691 103.661 113.39C103.648 101.687 98.9938 90.4675 90.7186 82.1923C82.4435 73.9172 71.2236 69.2625 59.5208 69.2495Z" fill="#919191"/>
</g>
<defs>
<clipPath id="clip0_31_2011">
<rect width="117.708" height="117.708" fill="white" transform="translate(0.666687 0.583313)"/>
</clipPath>
</defs>
</svg>
